<svg width="15" height="17" viewBox="0 0 15 17" fill="none" xmlns="http://www.w3.org/2000/svg">
<path d="M15 6.96934C13.5254 6.97247 12.0871 6.51601 10.8884 5.66445V11.6012C10.8881 12.7007 10.5492 13.7739 9.91712 14.6772C9.28505 15.5806 8.38992 16.271 7.35143 16.6562C6.31295 17.0414 5.18062 17.1029 4.10589 16.8327C3.03117 16.5624 2.06528 15.9731 1.33741 15.1437C0.609536 14.3143 0.154384 13.2843 0.0328241 12.1914C-0.088736 11.0985 0.129092 9.9949 0.657174 9.02811C1.18526 8.06132 1.99842 7.27747 2.9879 6.7814C3.97739 6.28533 5.09602 6.10068 6.1942 6.25215V9.23711C5.69206 9.08035 5.15281 9.08494 4.65345 9.25021C4.15409 9.41548 3.72016 9.73299 3.4136 10.1574C3.10705 10.5818 2.94356 11.0914 2.94647 11.6135C2.94938 12.1355 3.11855 12.6433 3.42981 13.0643C3.74107 13.4853 4.17852 13.798 4.67969 13.9578C5.18086 14.1176 5.72013 14.1163 6.2205 13.954C6.72086 13.7918 7.15674 13.4769 7.46589 13.0544C7.77505 12.6318 7.94167 12.1232 7.94197 11.6012V0H10.8884C10.8867 0.247119 10.908 0.493864 10.952 0.737109C11.0545 1.27932 11.2674 1.79511 11.5777 2.25296C11.888 2.71082 12.2891 3.10111 12.7567 3.4C13.4222 3.8359 14.2024 4.068 15 4.06738V6.96934Z" fill="white"/>
</svg>
